<svg width="95.309mm" height="35.067mm" version="1.1" viewBox="0 0 95.309 35.067" xmlns="http://www.w3.org/2000/svg">
<g transform="translate(-38.14 -164.27)">
<path d="m122.84 199.16c-0.16844-0.10502-0.30605-0.20969-0.3058-0.23259 0-0.0229 0.0684-0.0754 0.15148-0.11662 0.13111-0.0651 0.18173-0.0542 0.38413 0.0824 0.13574 0.0917 0.27351 0.14099 0.32978 0.1181 0.0532-0.0216 0.48385-0.27892 0.95708-0.57177l0.86041-0.53247v-2.2795l-1.8647-1.149-0.91971 0.55876-0.91971 0.55875v2.3339l0.33328 0.19715c0.52885 0.31284 0.53577 0.29927 0.57088-1.1198l0.0292-1.1788 0.32083-0.0394v1.2485c0 1.227-2e-3 1.2515-0.13964 1.4222-0.18901 0.23503-0.48127 0.23118-0.92861-0.0122-0.5522-0.30046-0.53369-0.24639-0.55148-1.6115-0.0114-0.8714 4e-3 -1.2354 0.0583-1.3451 0.0925-0.18827 1.9384-1.3364 2.1447-1.334 0.0802 9.3e-4 0.31645 0.10772 0.525 0.23732 0.20854 0.12959 0.58916 0.36236 0.84583 0.51726s0.53885 0.33526 0.62708 0.4008l0.16042 0.11918v2.6659l-0.16042 0.12026c-0.0882 0.0661-0.53495 0.34883-0.99272 0.62818-0.94888 0.57906-1.0554 0.60115-1.5156 0.31421zm-81.933-0.53518c-0.10306-0.61864-0.11224-0.64092-0.35-0.84985-1.6094-1.4142-2.5254-3.4708-2.4092-5.4093 0.07872-1.313 0.34852-2.3891 0.86269-3.4407 0.33878-0.69291 0.93783-1.5194 1.422-1.9618 0.18874-0.17247 0.37588-0.40947 0.42905-0.54337l0.09429-0.23747 0.17226 0.35216c0.09474 0.19369 0.39426 0.60927 0.66559 0.92352 1.4747 1.7079 2.2069 3.8805 2.0048 5.9482-0.16962 1.7351-1.0222 3.3762-2.2796 4.3877-0.16496 0.1327-0.20949 0.22787-0.29834 0.63758-0.05745 0.26488-0.08832 0.50101-0.0686 0.52474 0.01971 0.0237 0.0048 0.0241-0.0331 8.9e-4 -0.04459-0.0273-0.0755 0.0187-0.0875 0.13038-0.01044 0.0971-0.06484-0.10523-0.12439-0.46266zm11.758-0.75429c-0.96669-0.0146-1.1229-0.0303-1.1229-0.11329 0-0.19914 0.11939-0.33771 0.29098-0.33771 0.25543 0 0.46542-0.12664 0.50917-0.30706 0.02146-0.0885 0.04052-1.1916 0.04235-2.4512 0.0038-2.6062 0.03179-2.462-0.49537-2.5511-0.16695-0.0282-0.31408-0.0626-0.32696-0.0764-0.01289-0.0138 0.0029-0.0991 0.03509-0.18969l0.05852-0.16463h1.5367c1.6901 0 1.9304 0.0374 2.3551 0.36649 0.30817 0.23877 0.44832 0.56406 0.44904 1.0422 7.7e-4 0.5094-0.22031 0.88703-0.6927 1.1832-0.08847 0.0555-0.04708 0.0948 0.28178 0.26798 0.63795 0.33592 0.89437 0.79373 0.84403 1.5069-0.04632 0.65616-0.40507 1.1603-1.0657 1.4975-0.61308 0.31296-0.9461 0.35328-2.6991 0.32683zm1.9121-0.51962c0.3437-0.0788 0.67441-0.35421 0.79446-0.66152 0.12696-0.32501 0.09979-0.94243-0.05429-1.2334-0.2466-0.4657-0.62725-0.64537-1.4857-0.70124l-0.53958-0.0351 2.34e-4 1.0848c1.75e-4 0.96832 0.01253 1.1064 0.11486 1.2859 0.10844 0.19024 0.17989 0.22927 0.52659 0.28768 0.2678 0.0451 0.34245 0.042 0.6434-0.0271zm0.18555-3.2514c0.3555-0.29002 0.42268-0.98878 0.13845-1.4399-0.18766-0.29784-0.51708-0.46623-1.0085-0.51548-0.61646-0.0618-0.60058-0.0919-0.60058 1.1408v1.0287l0.63242-0.0232c0.57945-0.0212 0.64966-0.0372 0.83819-0.19102zm-9.5789 3.6591c0-0.19851 0.11908-0.33906 0.28726-0.33906 0.09157 0 0.22846-0.0536 0.3042-0.11922l0.13771-0.11921 0.01935-2.2361c0.01302-1.5043-0.0017-2.3112-0.04484-2.4656-0.06757-0.24161-0.17377-0.30469-0.65992-0.39198-0.2476-0.0445-0.24208-0.0354-0.15105-0.24907l0.0677-0.15891h1.7468c1.4015 0 1.817 0.0194 2.1017 0.0984 1.2589 0.34892 1.9661 1.3629 1.9661 2.819 0 1.0312-0.22714 1.6789-0.80303 2.29-0.38589 0.40946-0.85624 0.68428-1.4484 0.84627-0.3927 0.10742-0.64787 0.12325-1.9871 0.12325-1.3556 0-1.5365-0.0115-1.5365-0.0977zm3.15-0.40551c0.45994-0.0795 0.7856-0.27372 1.1006-0.6565 0.58737-0.71373 0.73823-2.1918 0.32558-3.1898-0.15838-0.38305-0.6043-0.88487-0.95762-1.0777-0.50935-0.27793-1.604-0.41125-1.8428-0.22442-0.1085 0.0849-0.11323 0.18354-0.11323 2.3581 0 2.0564 0.0096 2.2852 0.10208 2.4361 0.14904 0.24326 0.38655 0.34668 0.94792 0.41277 0.03208 4e-3 0.22896-0.0226 0.4375-0.0586zm74.986 0.38979c-0.36678-0.18335-0.51567-0.6353-0.2093-0.6353 0.13062 0 0.17681 0.0347 0.20475 0.15374 0.0271 0.11539 0.0968 0.17122 0.27926 0.22379 0.47425 0.13659 0.93296-0.0503 0.82973-0.33801-0.0356-0.0992-0.11503-0.12397-0.71652-0.22324-0.43605-0.072-0.63268-0.19198-0.68585-0.41857-0.0936-0.39872 0.19897-0.71225 0.70654-0.75727 0.55171-0.0489 0.92016 0.16996 0.97567 0.57964 0.0126 0.0929-0.0204 0.12921-0.12892 0.1421-0.10915 0.013-0.16971-0.0281-0.24071-0.16319-0.0675-0.12843-0.15688-0.19294-0.30988-0.22364-0.40041-0.0804-0.8249 0.1911-0.58827 0.37618 0.0509 0.0398 0.29512 0.10413 0.54276 0.14299 0.25147 0.0394 0.51464 0.12124 0.5961 0.18525 0.30616 0.24059 0.29815 0.65412-0.0175 0.90553-0.23286 0.18545-0.91199 0.21288-1.2378 0.05zm-32.515-1.1445c-0.39428-0.28902-0.50485-0.80014-0.39651-1.8329l0.04606-0.43913-0.30856-0.11699c-0.6161-0.23357-1.2104-0.74041-1.3326-1.1365-0.07822-0.2535 0.0015-0.55882 0.21765-0.83357 0.16601-0.21102 0.74798-0.57665 1.1525-0.72408l0.27217-0.0992-0.04664-0.44543c-0.10719-1.0236 0.0052-1.5584 0.3849-1.8315 0.40314-0.28997 1.0301-0.0912 1.7715 0.56178l0.27802 0.24484 0.2093-0.17823c0.69642-0.59301 1.1448-0.81044 1.551-0.75217 0.57281 0.0822 0.80843 0.77949 0.66976 1.982l-0.0473 0.40983 0.39726 0.16826c0.58561 0.24805 0.93283 0.50502 1.1287 0.8353 0.19956 0.33658 0.20783 0.42027 0.0762 0.77209-0.12159 0.32502-0.61186 0.72418-1.1848 0.9646l-0.40885 0.17157 0.043 0.25562c0.0237 0.1406 0.0426 0.50832 0.0421 0.81716-7e-4 0.44486-0.026 0.61339-0.12174 0.81111-0.14908 0.30784-0.44362 0.53034-0.70205 0.53034-0.34166 0-1.0227-0.34799-1.3733-0.7017-0.25926-0.26158-0.26348-0.26151-0.55166 0.01-0.35341 0.33274-0.94229 0.64079-1.2914 0.67556-0.22065 0.022-0.31543-2e-3 -0.47478-0.1185zm0.90882-0.3662c0.28062-0.12849 0.89444-0.59811 0.89444-0.68432 0-0.0321-0.11156-0.19333-0.24792-0.35832-0.13635-0.16499-0.28729-0.36424-0.33541-0.44278-0.0705-0.11499-0.17269-0.1556-0.525-0.20858-0.71627-0.1077-0.72139-0.10699-0.76465 0.10487-0.06431 0.31493-0.04951 1.1728 0.02419 1.4022 0.12139 0.37791 0.41264 0.43495 0.95436 0.18692zm3.0733 0.0792c0.19152-0.11632 0.28927-1.0441 0.17727-1.6827l-0.0384-0.21875-0.2693 0.0428c-0.14812 0.0235-0.40709 0.0642-0.57551 0.0905-0.16841 0.0263-0.31383 0.0594-0.32316 0.0738-9e-3 0.0143-0.16609 0.22708-0.34834 0.47279l-0.33136 0.44675 0.21703 0.20945c0.54759 0.52846 1.1664 0.76301 1.4917 0.56542zm-1.6898-1.3254c0.11603-0.13736 0.21096-0.27775 0.21096-0.31197 0-0.0362-0.19534-0.0622-0.46667-0.0622-0.25666 0-0.46666 0.0163-0.46666 0.0363 0 0.0603 0.41902 0.58763 0.4669 0.58763 0.0245 0 0.13945-0.11239 0.25547-0.24975zm0.52546-0.78187c0.0492-0.0526 0.23652-0.37347 0.41622-0.71292l0.32672-0.6172-0.0967-0.20737c-0.25608-0.54912-0.64591-1.1698-0.75424-1.201-0.15431-0.0443-1.1918-0.0444-1.346-1.2e-4 -0.0712 0.0205-0.23756 0.25084-0.41612 0.57628-0.49118 0.89519-0.4801 0.74731-0.10859 1.4491 0.17998 0.34 0.38451 0.66109 0.45452 0.71353 0.18337 0.13738 1.3956 0.13708 1.5242-3.7e-4zm-1.1386-0.69565c-0.32158-0.21346-0.43123-0.65367-0.25409-1.0201 0.11179-0.23123 0.36379-0.37231 0.665-0.37231 0.1904 0 0.2729 0.0413 0.4404 0.22045 0.17098 0.18288 0.20605 0.26531 0.20573 0.48355-8.8e-4 0.61469-0.59006 0.99836-1.057 0.68837zm-0.86758 0.66383c0-0.11734-0.43162-0.8709-0.47164-0.82343-0.05259 0.0624-0.2456 0.70402-0.21972 0.73042 0.02275 0.0232 0.50349 0.14095 0.61845 0.15148 0.0401 4e-3 0.0729-0.0226 0.0729-0.0585zm2.9312-0.0311c0.17286-0.0335 0.21848-0.0704 0.21747-0.17584-1e-3 -0.14174-0.2188-0.69957-0.25628-0.65747-0.0732 0.0822-0.44244 0.80734-0.44244 0.86886 0 0.0454 0.051 0.0611 0.13125 0.0405 0.0722-0.0185 0.22969-0.0528 0.35-0.0761zm-3.7702-0.74197 0.20127-0.55748-0.15402-0.40961c-0.08472-0.22529-0.17692-0.47279-0.2049-0.55-0.06391-0.17638-0.09218-0.17537-0.50379 0.0179-1.0273 0.48239-1.2535 0.92977-0.73262 1.4486 0.1514 0.15081 0.38109 0.32328 0.51042 0.38327 0.12932 0.06 0.30075 0.14056 0.38096 0.17905 0.08021 0.0385 0.18084 0.0645 0.22362 0.0578 0.04279-7e-3 0.16836-0.263 0.27906-0.56961zm4.9127 0.36528c0.40872-0.19561 0.76432-0.50187 0.85727-0.73831 0.0918-0.2335 0.0124-0.43257-0.27685-0.69429-0.20669-0.18701-1.0179-0.60753-1.1092-0.57499-0.0306 0.0109-0.14342 0.26268-0.2507 0.5595l-0.19506 0.53966 0.21091 0.56654c0.23669 0.63581 0.19165 0.61564 0.76363 0.34189zm-4.0738-2.2132c0-0.0399-0.036-0.0577-0.08-0.0396s-0.20413 0.0528-0.3558 0.0771c-0.25937 0.0416-0.2739 0.0539-0.24457 0.2078 0.01715 0.09 0.07367 0.27158 0.12562 0.40361l0.09444 0.24004 0.23018-0.40821c0.1266-0.22451 0.23018-0.44082 0.23018-0.48069zm3.0354 0.59082c0.17643-0.44024 0.15858-0.50394-0.15536-0.5543-0.14848-0.0238-0.30598-0.0581-0.35-0.0762-0.044-0.0181-0.08-7.3e-4 -0.08 0.0385 0 0.0661 0.41695 0.8698 0.45416 0.87537 9e-3 1e-3 0.0682-0.12618 0.13125-0.28345zm-3.2521-0.92478c0.28189-0.0458 0.51916-0.0939 0.52727-0.10698 8e-3 -0.0131 0.16655-0.22589 0.35211-0.47295l0.33736-0.4492-0.19379-0.18599c-0.10659-0.1023-0.3371-0.27917-0.51225-0.39303-0.26726-0.17375-0.3749-0.20705-0.66956-0.20711-0.34325-6e-5 -0.35336 5e-3 -0.45166 0.2183-0.16151 0.35074-0.11607 1.6917 0.057 1.6824 0.02256-1e-3 0.27164-0.0397 0.55352-0.0854zm3.549-0.13073c0.0205-0.10294 0.0403-0.41538 0.0441-0.6943 8e-3 -0.58249-0.0981-0.93375-0.30771-1.019-0.29363-0.11941-0.91584 0.15196-1.3826 0.60299l-0.22435 0.21679 0.33136 0.44675c0.18225 0.24571 0.33894 0.4584 0.3482 0.47264 0.0237 0.0365 0.89678 0.17895 1.0375 0.16928 0.0794-5e-3 0.12811-0.0674 0.15351-0.19518zm-1.6406-0.0232c0-0.0299-0.10508-0.1773-0.2335-0.32756l-0.23349-0.27319-0.23302 0.28076c-0.12816 0.15443-0.23308 0.30183-0.23317 0.32757 0 0.0257 0.20985 0.0468 0.46651 0.0468 0.25667 0 0.46667-0.0245 0.46667-0.0544zm-23.508 2.3629c0-1.6638 0.02039-2.5581 0.05833-2.5581 0.03397 0 0.05941 0.21501 0.06091 0.51474l0.0026 0.51474 0.10976-0.22204c0.44001-0.89013 1.5277-1.1446 2.2125-0.51764 0.12775 0.11696 0.30604 0.37335 0.39619 0.56975 0.1495 0.3257 0.16392 0.41747 0.16392 1.0434 0 0.61387-0.01628 0.72255-0.1542 1.0295-0.29673 0.66036-0.6865 0.93316-1.3333 0.93316-0.58436 0-1.0328-0.28886-1.3034-0.83957-0.08683-0.17672-0.0921-0.12359-0.0943 0.95149-0.0015 0.71586-0.024 1.1387-0.06067 1.1387-0.03794 0-0.05833-0.89429-0.05833-2.5581zm1.9445 1.1183c0.13772-0.0409 0.32192-0.17611 0.47938-0.35189 0.39387-0.43968 0.5549-1.1168 0.43449-1.827-0.10944-0.64555-0.33999-1.0169-0.78247-1.2602-0.18063-0.0993-0.31098-0.12054-0.62457-0.10158-0.54983 0.0332-0.8246 0.23987-1.1002 0.82742-0.18962 0.4042-0.20265 0.47037-0.19662 0.99829 0.0069 0.60239 0.08793 0.89576 0.35012 1.2674 0.29843 0.42297 0.89662 0.60891 1.4399 0.44755zm54.222 1.3139c-0.26834-0.16762-0.13587-0.68522 0.17538-0.68522 0.32079 0 0.46803 0.38113 0.24103 0.62393-0.12625 0.13503-0.26553 0.15553-0.41641 0.0613zm0.4301-0.14769c0.18727-0.30405-0.20553-0.6354-0.44703-0.37709-0.12356 0.13216-0.11533 0.25099 0.028 0.40428 0.12332 0.13191 0.32928 0.11854 0.41904-0.0272zm-0.35692-0.17877c-7e-3 -0.2366 0.10815-0.32604 0.20459-0.15914 0.059 0.10212 0.0657 0.36191 9e-3 0.36191-0.0251 0-0.0457-0.0421-0.0457-0.0936 0-0.12961-0.1022-0.11779-0.13479 0.0156-0.0147 0.0601-0.0297 4e-3 -0.0334-0.12478zm-62.048-0.91319c-0.35508-0.17251-0.63762-0.56387-0.74877-1.0372-0.2714-1.1556 0.08552-2.2394 0.86545-2.6278 0.61986-0.30873 1.3495-0.11252 1.7496 0.4705 0.21595 0.31465 0.40406 0.94129 0.37198 1.2391l-0.01832 0.17005-2.926 0.0332 0.04239 0.33408c0.13602 1.0721 0.82987 1.5966 1.7752 1.3419 0.43392-0.11687 0.75423-0.48666 0.92664-1.0698 0.06004-0.20307 0.16451-0.12223 0.12096 0.0936-0.10167 0.50383-0.39038 0.86483-0.8592 1.0744-0.30309 0.13545-0.99993 0.12357-1.2999-0.0222zm2.0741-2.1171c0-0.57701-0.39008-1.2323-0.84392-1.4177-0.41408-0.16914-0.92986-0.10777-1.2663 0.1507-0.32283 0.24797-0.56466 0.69332-0.61286 1.1286l-0.03479 0.3142h2.7579zm10.138 2.1732c-0.42675-0.1376-0.7482-0.56671-0.90034-1.2019-0.23922-0.99877 0.12252-2.1033 0.81776-2.4969 0.18449-0.10445 0.34258-0.13654 0.67808-0.13765 0.3745-1e-3 0.47711 0.0235 0.71261 0.17153 0.15131 0.0951 0.34412 0.26975 0.42848 0.38804 0.18321 0.25692 0.37558 0.8832 0.37558 1.2227v0.24401h-2.9167v0.20705c0 0.63735 0.4156 1.3049 0.91093 1.4632 0.46678 0.14918 1.0021 0.0548 1.3533-0.23863 0.19808-0.16549 0.41843-0.54749 0.41882-0.72604 2.92e-4 -0.13787 0.09637-0.24928 0.15806-0.1833 0.01833 0.0196 8.34e-4 0.15983-0.03889 0.31158-0.1664 0.63568-0.72798 1.0417-1.4282 1.0325-0.2263-3e-3 -0.48256-0.0283-0.56947-0.0563zm1.9211-2.3325c-0.0538-0.55754-0.33597-1.0074-0.78316-1.2487-0.26604-0.14352-0.8392-0.13232-1.1219 0.0219-0.43099 0.23518-0.82061 0.89319-0.82061 1.3859v0.17606h2.758zm1.3949 2.3028c-0.4163-0.15873-0.64436-0.49349-0.69032-1.0133-0.0283-0.32006 0.08443-0.24194 0.17061 0.11822 0.10197 0.42617 0.30946 0.65348 0.71022 0.7781 0.59674 0.18555 1.3175-9e-3 1.5422-0.41546 0.20315-0.36784 0.0692-0.819-0.30453-1.0257-0.08675-0.048-0.41912-0.16158-0.7386-0.25244-1.0595-0.30131-1.2614-0.47287-1.2614-1.0716 0-0.33536 0.10966-0.52785 0.4298-0.75445 0.21705-0.15364 0.29424-0.17143 0.74233-0.17114 0.37211 2.5e-4 0.55692 0.0304 0.72214 0.11796 0.29836 0.15808 0.51036 0.46729 0.52474 0.76536 0.01482 0.30727-0.09406 0.34678-0.1403 0.0509-0.04536-0.29025-0.21335-0.53215-0.4648-0.66929-0.25036-0.13655-0.97924-0.14958-1.2092-0.0216-0.38822 0.21604-0.54748 0.61289-0.39876 0.9936 0.09728 0.24904 0.24766 0.34477 0.7954 0.50633 1.1443 0.33751 1.3949 0.48216 1.5161 0.87508 0.13855 0.44902-0.09494 0.94196-0.55118 1.1636-0.28784 0.13985-1.058 0.15414-1.3944 0.0259zm3.4011 0.0357c-0.51927-0.18067-0.81191-0.59486-0.81293-1.1506-4.67e-4 -0.26512 0.13929-0.17144 0.17824 0.11946 0.08833 0.6597 0.44618 0.93154 1.2214 0.92785 0.51587-2e-3 0.74234-0.08 0.94982-0.32521 0.26307-0.31092 0.22221-0.85018-0.08275-1.0922-0.08457-0.0671-0.43884-0.20489-0.78726-0.30619-1.0832-0.31491-1.2809-0.45871-1.3461-0.9791-0.04145-0.33052 0.15086-0.69389 0.47113-0.89019 0.20191-0.12375 0.32154-0.14765 0.73687-0.1472 0.53281 5.6e-4 0.72084 0.07 1.0007 0.36926 0.17357 0.18564 0.30246 0.63314 0.2249 0.78084-0.04381 0.0834-0.05625 0.0795-0.08777-0.0276-0.23295-0.79162-0.43415-0.96439-1.1251-0.96606-0.69714-2e-3 -1.0015 0.2108-1.0478 0.73146-0.02134 0.24012-0.0015 0.33075 0.10367 0.47324 0.15191 0.20584 0.22713 0.23998 1.0677 0.48452 0.34766 0.10115 0.70976 0.22685 0.80466 0.27934 0.39243 0.21706 0.52908 0.86549 0.26928 1.2778-0.22043 0.34986-0.46172 0.4581-1.0619 0.47635-0.29014 9e-3 -0.59468-7e-3 -0.67676-0.0359zm19.162-8e-3c-0.35634-0.054-0.464-0.11243-0.70752-0.38366-0.22007-0.24511-0.3777-0.80404-0.32663-1.1582 0.0627-0.43485 0.33736-0.86553 0.6708-1.0518 0.233-0.13019 0.78109-0.11172 1.0636 0.0358 0.35534 0.18558 0.61634 0.66798 0.61634 1.1392v0.172l-0.86042 7e-3c-0.47323 4e-3 -0.91948 2e-3 -0.99167-4e-3 -0.15416-0.0134-0.16829 0.0939-0.0517 0.39243 0.10471 0.26803 0.39778 0.5258 0.65694 0.5778 0.23408 0.047 0.63832-0.0598 0.79656-0.21035 0.0948-0.0902 0.11198-0.0902 0.19649 1.9e-4 0.12136 0.12981 0.059 0.22535-0.235 0.36012-0.33365 0.15294-0.48646 0.17584-0.82786 0.12406zm0.96664-1.5918c0-0.18424-0.16236-0.50864-0.32164-0.64264-0.12243-0.10301-0.24046-0.13526-0.49503-0.13526-0.38707 0-0.60529 0.14121-0.73624 0.47641-0.15693 0.40174-0.16557 0.39709 0.73624 0.39709 0.69464 0 0.81667-0.0143 0.81667-0.0956zm1.4292 1.5615c-0.26604-0.10081-0.4902-0.36324-0.50602-0.59242-0.0381-0.55174 0.12425-0.86352 0.52293-1.0043 0.25894-0.0914 0.67604-0.0301 0.88665 0.13029 0.0905 0.0689 0.18009 0.12525 0.1992 0.12525 0.0191 0 0.0347-0.15193 0.0347-0.33761 0-0.30041-0.0198-0.35542-0.17947-0.49915-0.24776-0.22298-0.70494-0.22756-1.0046-0.0101-0.17688 0.12838-0.21912 0.13801-0.27717 0.0632-0.10425-0.13436-0.0323-0.24767 0.24994-0.39383 0.3435-0.17786 0.92937-0.18303 1.1939-0.0105 0.32653 0.21295 0.36741 0.37952 0.36741 1.4969v1.0014h-0.175c-0.13803 0-0.175-0.0273-0.175-0.12903v-0.12904l-0.16624 0.12662c-0.0914 0.0696-0.28175 0.15509-0.42292 0.1899-0.31209 0.077-0.26649 0.0792-0.54834-0.0276zm1.0346-0.38733c0.071-0.0687 0.10294-0.19212 0.10294-0.39741 0-0.24423-0.0265-0.32009-0.14755-0.42191-0.30516-0.25674-0.84541-0.21544-1.0763 0.0823-0.12422 0.16021-0.0997 0.57906 0.0428 0.73149 0.22579 0.2415 0.83111 0.24462 1.0781 6e-3zm2.1154 0.42224c-0.65909-0.18841-0.9625-0.62915-0.9625-1.3982 0-0.34894 0.0244-0.43899 0.18959-0.69943 0.28273-0.4458 0.44634-0.54953 0.91109-0.57762 0.32101-0.0194 0.44394 2e-3 0.64264 0.11008 0.29058 0.15856 0.36105 0.29944 0.20919 0.41822-0.0595 0.0465-0.1228 0.0619-0.14073 0.0341-0.16947-0.26198-0.66544-0.33842-1.0206-0.15728-0.38965 0.19873-0.56485 0.95582-0.33633 1.4533 0.14206 0.3093 0.43542 0.50137 0.76576 0.50137 0.24561 0 0.49475-0.11168 0.59379-0.26616 0.0462-0.0721 0.23884 0.13476 0.21097 0.22661-0.0327 0.10769-0.45387 0.33764-0.68374 0.37328-0.11229 0.0174-0.28292 9e-3 -0.37917-0.0184zm2.0536-0.0406c-0.0897-0.052-0.18814-0.16503-0.21875-0.25113-0.0306-0.0861-0.0556-0.57587-0.0556-1.0884v-0.93183h-0.20417c-0.17788 0-0.20416-0.0197-0.20416-0.15316 0-0.12563 0.0367-0.16051 0.20416-0.19412 0.20334-0.0408 0.20417-0.0423 0.20417-0.37718 0-0.33072 3e-3 -0.33622 0.17209-0.33622 0.16846 0 0.17245 8e-3 0.18958 0.35677 0.0171 0.34822 0.0217 0.357 0.1925 0.36624 0.31914 0.0173 0.32934 0.0227 0.31031 0.16609-0.0155 0.1167-0.0605 0.14362-0.26656 0.15957l-0.24792 0.0192v0.83466c0 0.45906 0.0269 0.91028 0.0597 1.0027 0.054 0.15196 0.0815 0.16494 0.28649 0.13553 0.18884-0.0271 0.23164-0.0126 0.25594 0.0868 0.0209 0.0855-0.0182 0.14558-0.13776 0.2117-0.20804 0.11506-0.33198 0.1134-0.54002-7e-3zm-43.112-0.19019c0.0956-0.13231 0.40188-0.5541 0.68061-0.93731 0.27874-0.38322 0.50679-0.72959 0.50679-0.76973 0-0.0401-0.2625-0.44578-0.58333-0.90142-0.54714-0.77704-0.65343-0.97012-0.53409-0.97012 0.02708 0 0.32014 0.39205 0.65124 0.87121l0.602 0.87122 0.25945-0.35648c0.1427-0.19606 0.41707-0.5881 0.60972-0.87121 0.32691-0.4804 0.45334-0.60594 0.45334-0.45014 0 0.0355-0.27715 0.45785-0.61589 0.9385l-0.61589 0.8739 0.22565 0.29376c0.72432 0.94295 1.1836 1.635 1.0829 1.6319-0.06615-2e-3 -0.34578-0.34154-0.74493-0.90441-0.43488-0.61327-0.65805-0.88078-0.69859-0.83742-0.03276 0.035-0.32395 0.43488-0.64707 0.88852-0.32312 0.45364-0.6366 0.83492-0.6966 0.84728-0.09091 0.0187-0.08011-0.0177 0.06472-0.21809zm6.9761-1.6444c0.0099-1.1948 0.03654-1.872 0.07377-1.8724 0.03208-3.1e-4 0.06619 0.18656 0.07579 0.41522l0.01745 0.41573 0.1171-0.25315c0.18228-0.39406 0.67409-0.70197 1.1212-0.70197 0.28739 0 0.13973 0.153-0.18982 0.19668-0.38145 0.0506-0.67455 0.28822-0.87898 0.7127-0.14026 0.29122-0.14684 0.35638-0.16483 1.6312-0.01561 1.1063-0.03278 1.3278-0.10294 1.3278-0.07186 0-0.08194-0.27449-0.06877-1.8718zm24.763 1.8237c-0.0944-0.0216-0.10208-0.16007-0.10208-1.8328v-1.8094l0.83125 0.0202c0.70381 0.0171 0.86651 0.04 1.0613 0.14927 0.42398 0.23789 0.6211 0.72796 0.49472 1.23-0.0824 0.32747-0.44658 0.73114-0.65955 0.73114-0.084 0-0.15269 0.0264-0.15269 0.0587s0.18364 0.36221 0.4081 0.73312l0.4081 0.67437-0.18831 0.0206c-0.22403 0.0245-0.27726-0.0354-0.75841-0.85464l-0.33469-0.56983h-0.70146v0.71024c0 0.7545-0.0207 0.8045-0.30625 0.73904zm1.7001-2.0047c0.17703-0.17687 0.20543-0.28004 0.18206-0.66129-0.025-0.40776-0.36145-0.59273-1.0782-0.59273h-0.49771v1.435h0.60633c0.5886 0 0.61163-5e-3 0.7875-0.18102zm25.874 1.8725c-0.0305-0.0305-0.43604-0.28764-0.90125-0.57137s-0.89177-0.55791-0.94792-0.6093c-0.0912-0.0834-0.10208-0.2325-0.10208-1.3931v-1.2997l0.21875-0.15048c0.12031-0.0828 0.5984-0.38206 1.0624-0.6651l0.84366-0.51461 0.29476 0.16507c0.16212 0.0908 0.32716 0.16506 0.36675 0.16506 0.0553 0 0.072-0.37638 0.072-1.6185 0-1.0405 0.0214-1.6327 0.0599-1.6582 0.0581-0.0384 0.91385 0.42351 1.238 0.66831l0.16042 0.12116v3.0099c0 2.3141-0.0169 3.0325-0.0729 3.1078-0.10607 0.14238-2.0019 1.2986-2.1293 1.2986-0.0593 0-0.13275-0.025-0.16323-0.0555zm0.87792-2.56v-0.45178l-0.7-0.41966-0.67084 0.43976v0.89601l0.33542 0.19894 0.33542 0.19895 0.7-0.41044zm-6.2708 2.4029c-0.11229-0.0786-0.32229-0.21123-0.46666-0.29474-0.70686-0.40885-1.2326-0.76385-1.2843-0.86724-0.0881-0.17598-0.0743-2.4459 0.0156-2.5729 0.0812-0.11472 1.9834-1.2935 2.0874-1.2935 0.0943 0 1.9231 1.1231 2.0502 1.2591 0.0955 0.10218 0.10617 0.23757 0.10617 1.3517 0 1.101-0.0113 1.2488-0.10209 1.3343-0.19912 0.18757-1.9741 1.2334-2.0872 1.2298-0.0632-2e-3 -0.20678-0.068-0.31907-0.14656zm9.7125-0.46915-0.99166-0.61539-0.0157-1.3423-0.0157-1.3423 1.0139-0.62961c0.55766-0.34629 1.064-0.62961 1.1251-0.62961 0.0611 0 0.55694 0.27765 1.1018 0.61701l0.99062 0.61702 0.034 0.8777-0.25038 0.1809c-0.46594 0.33662-1.0446 0.65043-1.1327 0.61426-0.0482-0.0198-0.0829-0.0853-0.0772-0.14558 6e-3 -0.0603 7e-3 -0.22238 4e-3 -0.36021-6e-3 -0.23565-0.0264-0.26321-0.33748-0.4622l-0.33077-0.21161-0.26643 0.15024c-0.42052 0.23713-0.47204 0.31775-0.47204 0.73872 0 0.4363-0.0826 0.35742 1.1812 1.1276 0.52881 0.32223 0.86018 0.56148 0.8598 0.62079-7e-4 0.10582-1.162 0.81536-1.329 0.812-0.0547-1e-3 -0.54578-0.27892-1.0912-0.61738zm-16.725-1.4864c-9e-3 -0.88364-8e-3 -1.6656 3e-3 -1.7378 0.0143-0.0953 0.26955-0.28582 0.93333-0.69684 0.50248-0.31113 0.98482-0.6001 1.0719-0.64214 0.14842-0.0717 0.22288-0.0361 1.1958 0.57227l1.0376 0.64871 0.0155 1.7312c0.0137 1.5259 5e-3 1.7312-0.0745 1.7312-0.1775 0-1.3118-0.75761-1.3419-0.89626-0.0159-0.0733-0.0353-0.48238-0.0432-0.90914l-0.0143-0.77592-0.2625-0.17067c-0.34402-0.22366-0.45578-0.22053-0.79549 0.0223l-0.28368 0.20277-0.0164 0.83819c-9e-3 0.461-0.0435 0.87322-0.0768 0.91604-0.0788 0.10154-1.1775 0.77268-1.265 0.77268-0.0486 0-0.0718-0.44575-0.0837-1.6066zm17.605-0.12689c-0.13093-0.085-0.17441-0.16406-0.18805-0.3417-0.0157-0.20526 6e-3 -0.24838 0.19531-0.38592l0.21305-0.15484 0.22291 0.13401c0.19773 0.11886 0.22292 0.161 0.22292 0.373 0 0.20269-0.0288 0.25779-0.18959 0.36264-0.23174 0.15112-0.26236 0.15195-0.47655 0.0128zm-78.122-1.5692c-0.32308-0.21071-0.33029-0.5787-0.01603-0.81804 0.17629-0.13427 0.177-0.13705 0.05819-0.22606-0.1545-0.11575-0.15276-0.23882 0.0051-0.35705l0.12535-0.0939-0.18368-0.22377c-0.2553-0.311-0.25203-0.59554 0.01005-0.87586 0.24064-0.25739 0.5287-0.32356 0.94428-0.21693 0.16947 0.0435 0.3765 0.0607 0.46006 0.0383 0.08356-0.0224 0.15193-0.0145 0.15193 0.0177 0 0.15515-0.08427 0.25587-0.21408 0.25587-0.1015 0-0.14023 0.0318-0.13287 0.10918 0.04051 0.426-0.1319 0.70142-0.51859 0.82842-0.40058 0.13156-0.38456 0.12119-0.31016 0.20077 0.03785 0.0405 0.2571 0.0921 0.48724 0.11462 0.47484 0.0466 0.63029 0.17402 0.6299 0.51652-7.11e-4 0.63809-0.9373 1.0951-1.4967 0.73027zm1.0187-0.23804c0.16095-0.14886 0.20334-0.34152 0.10636-0.48338-0.06085-0.089-0.17392-0.12443-0.45922-0.14386-0.34431-0.0234-0.3871-0.0126-0.47372 0.11964-0.13459 0.20552-0.11864 0.33845 0.05848 0.48747 0.19504 0.16409 0.60094 0.17473 0.7681 0.0201zm-0.22385-1.6337c0.22997-0.45961-0.14032-1.0058-0.49422-0.72899-0.14407 0.11267-0.14209 0.55643 0.0032 0.72819 0.13437 0.15881 0.41169 0.15926 0.49098 8e-4zm-4.896 0.8225c-0.27609-0.14896-0.43304-0.45979-0.4366-0.86466-0.0046-0.52754 0.32232-0.89262 0.84782-0.94663 0.38256-0.0393 0.6299 0.0903 0.8038 0.42126 0.25749 0.49003 0.09022 1.1356-0.3538 1.3655-0.31323 0.16218-0.59137 0.17009-0.86121 0.0245zm0.73303-0.18803c0.20296-0.14495 0.26103-0.66922 0.11541-1.042-0.09279-0.23754-0.38677-0.43488-0.56016-0.37602-0.57815 0.19627-0.37563 1.4688 0.23312 1.4648 0.08109-5e-4 0.17632-0.0216 0.21162-0.0468zm0.89832 0.16783c0-0.058 0.04852-0.1191 0.10782-0.13569 0.12694-0.0355 0.18385-0.28276 0.18385-0.79884 0-0.37267-0.09025-0.5582-0.27153-0.5582-0.19102 0-0.02553-0.15438 0.24628-0.22976 0.37372-0.10364 0.37524-0.10347 0.37524 0.0417 0 0.12351 5.25e-4 0.12351 0.18958 2.5e-4 0.10427-0.068 0.28218-0.12374 0.39535-0.12387 0.43108-5e-4 0.58084 0.29315 0.5814 1.14 2.92e-4 0.46395 0.0069 0.48776 0.1509 0.54632 0.27673 0.11254 0.12737 0.20607-0.34347 0.21509-0.38575 7e-3 -0.44877-6e-3 -0.44877-0.0969 0-0.058 0.0525-0.12022 0.11667-0.13817 0.10525-0.0294 0.11667-0.0851 0.11667-0.56881 0-0.45299-0.0181-0.55554-0.11667-0.66096-0.14384-0.15386-0.35467-0.16017-0.52115-0.0156-0.11458 0.0995-0.12421 0.15905-0.10854 0.67072 0.01631 0.53274 0.0241 0.56258 0.15186 0.58195 0.08638 0.0131 0.12821 0.056 0.11667 0.11977-0.01444 0.0798-0.1072 0.10105-0.47008 0.10799-0.38888 7e-3 -0.45208-6e-3 -0.45208-0.0969zm4.6011-5e-3c-0.25941-0.1609-0.40116-0.46175-0.40087-0.85081 2.92e-4 -0.37577 0.1578-0.65617 0.46184-0.82207 0.6514-0.35545 1.3069 0.0518 1.3094 0.81348 0.0013 0.38647-0.16558 0.67862-0.48725 0.85301-0.32191 0.17452-0.60872 0.1766-0.88314 6e-3zm0.8448-0.25596c0.30095-0.51581 0.03666-1.3154-0.43477-1.3154-0.26346 0-0.40278 0.20241-0.40278 0.58519 0 0.54865 0.20446 0.87065 0.55282 0.87065 0.14718 0 0.22529-0.0385 0.28473-0.14039zm-10.929 0.24125c0-0.0475 0.04863-0.0999 0.10806-0.11653 0.08678-0.0243 0.11374-0.10864 0.13689-0.42843 0.04442-0.61364 0.0028-0.83911-0.17057-0.92359-0.18367-0.0895-0.14322-0.13556 0.20553-0.234 0.36229-0.10226 0.36176-0.10232 0.36176 0.042v0.1249l0.21789-0.1249c0.27754-0.1591 0.48496-0.15836 0.67606 2e-3l0.15135 0.12734 0.23336-0.12734c0.6306-0.34409 0.93801-0.0281 0.93801 0.96408 0 0.51208 6e-3 0.53632 0.14583 0.5932 0.2796 0.1137 0.15365 0.18718-0.32083 0.18718-0.48456 0-0.55816-0.0445-0.33542-0.20288 0.11937-0.0849 0.13077-0.14013 0.12595-0.61045-0.0047-0.45864-0.02027-0.53009-0.13771-0.63181-0.1489-0.12897-0.30642-0.14564-0.47333-0.0501-0.09947 0.0569-0.11283 0.1352-0.11283 0.66097 0 0.5439 0.01027 0.59925 0.11667 0.62901 0.06417 0.018 0.11667 0.0715 0.11667 0.11894 0 0.0658-0.10389 0.0863-0.4375 0.0863-0.41872 0-0.57022-0.0763-0.33542-0.16899 0.05615-0.0222 0.12137-0.0704 0.14494-0.10723 0.06857-0.10711 0.05118-0.88804-0.02369-1.0638-0.07948-0.18659-0.29178-0.26198-0.50861-0.18062-0.14841 0.0557-0.15264 0.0725-0.16898 0.66932-0.01563 0.5712-0.0088 0.61443 0.10208 0.64544 0.06536 0.0183 0.11884 0.0721 0.11884 0.11955 0 0.0658-0.10389 0.0863-0.4375 0.0863s-0.4375-0.0205-0.4375-0.0863zm-6.5917-16.822v-8.4854l1.6188 3.8e-4c0.93581 1.8e-4 1.7105 0.0276 1.8362 0.0649 0.11958 0.0355 0.28601 0.14066 0.36984 0.23363 0.08383 0.093 0.506 0.91307 0.93816 1.8224 3.0691 6.4582 3.6313 7.6558 3.8756 8.2556 0.15115 0.37117 0.28855 0.65111 0.30532 0.62208 0.01677-0.029 0.11331-0.27656 0.21453-0.55007 0.10122-0.27352 0.49358-1.1431 0.87191-1.9323 0.37833-0.78927 1.2197-2.5581 1.8697-3.9308 2.1981-4.6418 2.0612-4.3947 2.5045-4.5224 0.14015-0.0404 0.84004-0.0592 1.822-0.0489l1.5944 0.0166v16.908l-3.2393 0.0332 0.0155-5.58c0.0085-3.069 0.01005-5.5741 0.0034-5.567-0.01315 0.0141-1.9228 3.961-2.917 6.0288-0.33822 0.70348-0.78292 1.6214-0.98822 2.0399-0.55342 1.128-0.82309 1.3293-1.7812 1.3293-1.0131 0-1.2453-0.21307-2.0396-1.8718-1.0738-2.2424-3.6126-7.5111-3.6279-7.5288-5e-3 -6e-3 -0.0012 2.5001 0.0085 5.5686l0.01748 5.579h-3.2725zm30.917 0v-8.4854h10.208v3.0572h-6.475v3.9308h4.9583v2.9325h-4.9583v3.9931h6.475v3.0572h-10.208zm22.59 8.4419c-0.0578-0.0232-0.0729-1.7762-0.0729-8.4783v-8.449l2.4354 6.3e-4c2.5687 6.3e-4 4.1132 0.0697 4.8277 0.21593 0.58018 0.11874 1.6174 0.49477 2.0119 0.72938 0.47175 0.28057 0.98474 0.71462 1.2873 1.0892 0.88773 1.0991 1.1651 3.0767 0.65969 4.7033-0.37697 1.2132-1.2728 2.2813-2.4087 2.8719-0.2273 0.11819-0.41327 0.23402-0.41327 0.25741 0 0.0234 0.0867 0.0998 0.19265 0.16989 0.29388 0.19426 0.87042 0.86805 1.101 1.2867 0.1134 0.20589 0.50687 0.89377 0.87437 1.5286 0.36751 0.63485 0.7616 1.3227 0.87576 1.5286 0.11415 0.20589 0.48664 0.8605 0.82774 1.4547s0.62018 1.0949 0.62018 1.1128c0 0.0178-0.83344 0.0229-1.8521 0.0111-1.7404-0.02-1.8679-0.0293-2.1146-0.15316-0.45185-0.22694-0.36099-0.0765-2.6857-4.4457-0.63613-1.1956-0.92912-1.5888-1.2323-1.6536-0.099-0.0212-0.45207-0.0385-0.78464-0.0385h-0.60467l-0.0302 6.2705-1.7208 8e-3c-0.94646 5e-3 -1.7536-5e-3 -1.7938-0.0208zm5.9204-9.0397c0.51481-0.11373 0.75472-0.23246 1.1566-0.57238 0.89186-0.7544 1.0267-2.6418 0.25282-3.5398-0.52431-0.60839-1.1388-0.7929-2.6777-0.80401l-1.0792-8e-3 -0.0152 2.5113-0.0152 2.5113h0.96562c0.65336 0 1.1101-0.0319 1.4123-0.0987zm18.332 0.59019v-8.4931l1.2396 0.0259c1.0979 0.0229 1.2621 0.0398 1.4364 0.14803 0.18567 0.11522 0.69447 0.77445 2.8918 3.7468 0.47961 0.64877 1.1115 1.5025 1.4042 1.8971 0.73666 0.99326 1.7313 2.3382 2.6264 3.5512 0.41569 0.56338 0.80829 1.0915 0.87246 1.1736l0.11667 0.14932-0.0374-10.679 3.2456 0.0332v16.908l-0.98993 0.0172c-1.1318 0.0196-1.4978-0.0406-1.8351-0.30193-0.13076-0.10132-0.54365-0.59812-0.91753-1.104-0.74979-1.0145-1.0148-1.3724-1.8363-2.4796-0.30551-0.4118-1.4578-1.9701-2.5606-3.4628-1.1028-1.4928-2.1114-2.8545-2.2412-3.026l-0.23599-0.31196 0.0167 5.3502 0.0167 5.3502h-3.2126z" stroke-width=".060329"/>
</g>
</svg>
