<svg width="113" height="45" viewBox="0 0 113 45" fill="none" xmlns="http://www.w3.org/2000/svg">
<path fill-rule="evenodd" clip-rule="evenodd" d="M32.8053 2.19098C26.5822 -0.730326 19.3818 -0.730329 13.1588 2.19098L12.7256 2.39436C6.59943 5.27017 2.1257 10.7929 0.582834 17.3822C-0.983963 24.0737 0.647891 31.1151 4.99956 36.4343C9.35434 41.7574 15.9372 44.7522 22.8113 44.5377L55 43.5332C37.5212 41.7721 29.7586 20.6422 41.9402 7.98452L42.938 6.94764L32.8053 2.19098ZM29.8908 6.29311C25.0763 4.03415 19.5064 4.03415 14.6919 6.29312L14.3501 6.45346C9.61208 8.67656 6.15195 12.9458 4.95822 18.0415C3.74521 23.2195 5.0087 28.6671 8.37715 32.7825L8.76217 33.2529C11.9299 37.123 16.5404 39.532 21.5264 39.9222L45.0748 41.7652C31.3655 38.769 26.2482 21.9026 35.9814 11.7939L37.7344 9.97334L29.8908 6.29311Z" fill="#1ABCFE"/>
<path d="M51.588 29.198C50.5613 29.198 49.7033 28.978 49.014 28.538C48.3393 28.098 47.826 27.4893 47.474 26.712C47.122 25.9347 46.9167 25.0327 46.858 24.006L49.058 23.412C49.102 24.0427 49.1973 24.6513 49.344 25.238C49.5053 25.8247 49.762 26.3087 50.114 26.69C50.466 27.0567 50.9573 27.24 51.588 27.24C52.2333 27.24 52.7173 27.064 53.04 26.712C53.3773 26.3453 53.546 25.8247 53.546 25.15C53.546 24.3433 53.3627 23.698 52.996 23.214C52.6293 22.7153 52.1673 22.2167 51.61 21.718L48.618 19.078C48.0313 18.5647 47.5987 18.0073 47.32 17.406C47.0413 16.79 46.902 16.0347 46.902 15.14C46.902 13.8347 47.276 12.8227 48.024 12.104C48.772 11.3853 49.7913 11.026 51.082 11.026C51.786 11.026 52.402 11.1213 52.93 11.312C53.4727 11.488 53.92 11.7667 54.272 12.148C54.6387 12.5293 54.9247 13.0133 55.13 13.6C55.35 14.172 55.4967 14.8467 55.57 15.624L53.458 16.196C53.414 15.6093 53.326 15.074 53.194 14.59C53.062 14.0913 52.8273 13.6953 52.49 13.402C52.1673 13.094 51.698 12.94 51.082 12.94C50.466 12.94 49.982 13.1087 49.63 13.446C49.2927 13.7687 49.124 14.2527 49.124 14.898C49.124 15.4407 49.212 15.888 49.388 16.24C49.5787 16.592 49.8793 16.9513 50.29 17.318L53.304 19.958C53.9787 20.5447 54.5727 21.2487 55.086 22.07C55.5993 22.8767 55.856 23.8373 55.856 24.952C55.856 25.832 55.6727 26.5947 55.306 27.24C54.9393 27.8707 54.4333 28.3547 53.788 28.692C53.1573 29.0293 52.424 29.198 51.588 29.198ZM60.4244 29V11.18H62.9104V19.584L67.0024 11.18H69.3124L65.7924 19.034L69.8844 29H67.4644L64.0544 20.64L62.9104 22.708V29H60.4244ZM72.989 29L76.773 11.18H79.171L82.977 29H80.623L79.809 24.512H76.179L75.321 29H72.989ZM76.509 22.73H79.479L77.983 14.7L76.509 22.73ZM87.4251 29V11.18H91.2971C92.6171 11.18 93.6585 11.3853 94.4211 11.796C95.1985 12.192 95.7485 12.7933 96.0711 13.6C96.4085 14.4067 96.5771 15.4113 96.5771 16.614V23.17C96.5771 24.4313 96.4085 25.4947 96.0711 26.36C95.7485 27.2253 95.2131 27.8853 94.4651 28.34C93.7318 28.78 92.7418 29 91.4951 29H87.4251ZM89.9111 27.218H91.3191C92.2285 27.218 92.8738 27.042 93.2551 26.69C93.6365 26.338 93.8638 25.8247 93.9371 25.15C94.0251 24.4753 94.0691 23.6613 94.0691 22.708V16.922C94.0691 15.998 94.0105 15.25 93.8931 14.678C93.7758 14.106 93.5191 13.688 93.1231 13.424C92.7271 13.16 92.1038 13.028 91.2531 13.028H89.9111V27.218ZM101.667 29V11.18H108.575V13.028H104.153V18.924H107.739V20.684H104.153V27.218H108.619V29H101.667Z" fill="#DEE1E6"/>
<path d="M54.486 40.71V33.798H55.449V34.212C55.563 34.08 55.701 33.966 55.863 33.87C56.025 33.774 56.217 33.726 56.439 33.726C56.709 33.726 56.922 33.798 57.078 33.942C57.24 34.08 57.36 34.257 57.438 34.473C57.516 34.683 57.567 34.899 57.591 35.121C57.615 35.337 57.627 35.523 57.627 35.679V36.939C57.627 37.305 57.591 37.653 57.519 37.983C57.447 38.307 57.315 38.571 57.123 38.775C56.937 38.973 56.673 39.072 56.331 39.072C56.145 39.072 55.98 39.027 55.836 38.937C55.692 38.841 55.563 38.733 55.449 38.613V40.71H54.486ZM56.142 38.316C56.31 38.316 56.43 38.256 56.502 38.136C56.574 38.01 56.619 37.842 56.637 37.632C56.655 37.422 56.664 37.191 56.664 36.939V35.679C56.664 35.463 56.652 35.265 56.628 35.085C56.604 34.899 56.553 34.752 56.475 34.644C56.397 34.536 56.274 34.482 56.106 34.482C55.98 34.482 55.86 34.509 55.746 34.563C55.632 34.617 55.533 34.68 55.449 34.752V38.082C55.539 38.148 55.641 38.205 55.755 38.253C55.869 38.295 55.998 38.316 56.142 38.316ZM60.7796 39V33.798H61.7426V34.536C61.9346 34.218 62.1266 34.005 62.3186 33.897C62.5106 33.789 62.7026 33.735 62.8946 33.735C62.9186 33.735 62.9396 33.735 62.9576 33.735C62.9816 33.735 63.0116 33.738 63.0476 33.744V34.806C62.9756 34.776 62.8916 34.752 62.7956 34.734C62.7056 34.71 62.6126 34.698 62.5166 34.698C62.3666 34.698 62.2286 34.734 62.1026 34.806C61.9826 34.872 61.8626 35.004 61.7426 35.202V39H60.7796ZM67.3252 39.072C66.9412 39.072 66.6382 38.994 66.4162 38.838C66.1942 38.682 66.0352 38.46 65.9392 38.172C65.8492 37.884 65.8042 37.545 65.8042 37.155V35.643C65.8042 35.253 65.8492 34.914 65.9392 34.626C66.0352 34.338 66.1942 34.116 66.4162 33.96C66.6382 33.804 66.9412 33.726 67.3252 33.726C67.7092 33.726 68.0092 33.804 68.2252 33.96C68.4472 34.116 68.6032 34.338 68.6932 34.626C68.7892 34.914 68.8372 35.253 68.8372 35.643V37.155C68.8372 37.545 68.7892 37.884 68.6932 38.172C68.6032 38.46 68.4472 38.682 68.2252 38.838C68.0092 38.994 67.7092 39.072 67.3252 39.072ZM67.3252 38.361C67.5112 38.361 67.6402 38.307 67.7122 38.199C67.7902 38.091 67.8352 37.95 67.8472 37.776C67.8652 37.596 67.8742 37.41 67.8742 37.218V35.589C67.8742 35.391 67.8652 35.205 67.8472 35.031C67.8352 34.857 67.7902 34.716 67.7122 34.608C67.6402 34.494 67.5112 34.437 67.3252 34.437C67.1392 34.437 67.0072 34.494 66.9292 34.608C66.8512 34.716 66.8032 34.857 66.7852 35.031C66.7732 35.205 66.7672 35.391 66.7672 35.589V37.218C66.7672 37.41 66.7732 37.596 66.7852 37.776C66.8032 37.95 66.8512 38.091 66.9292 38.199C67.0072 38.307 67.1392 38.361 67.3252 38.361ZM71.8054 40.314C71.7274 40.314 71.6404 40.308 71.5444 40.296C71.4544 40.29 71.3764 40.275 71.3104 40.251V39.558C71.3404 39.564 71.3824 39.57 71.4364 39.576C71.4904 39.582 71.5324 39.585 71.5624 39.585C71.7004 39.585 71.8084 39.558 71.8864 39.504C71.9644 39.45 72.0184 39.375 72.0484 39.279C72.0844 39.183 72.1024 39.075 72.1024 38.955V33.798H73.0654V39.054C73.0654 39.462 72.9514 39.774 72.7234 39.99C72.5014 40.206 72.1954 40.314 71.8054 40.314ZM72.1024 33.024V32.016H73.0744V33.024H72.1024ZM77.7317 39.072C77.3237 39.072 77.0087 38.994 76.7867 38.838C76.5647 38.676 76.4087 38.442 76.3187 38.136C76.2347 37.824 76.1927 37.443 76.1927 36.993V35.805C76.1927 35.343 76.2377 34.959 76.3277 34.653C76.4177 34.347 76.5737 34.116 76.7957 33.96C77.0237 33.804 77.3357 33.726 77.7317 33.726C78.1697 33.726 78.4907 33.816 78.6947 33.996C78.9047 34.176 79.0427 34.437 79.1087 34.779C79.1747 35.115 79.2077 35.52 79.2077 35.994V36.417H77.1557V37.461C77.1557 37.671 77.1737 37.842 77.2097 37.974C77.2517 38.106 77.3147 38.205 77.3987 38.271C77.4887 38.331 77.6027 38.361 77.7407 38.361C77.8847 38.361 77.9927 38.328 78.0647 38.262C78.1427 38.19 78.1937 38.091 78.2177 37.965C78.2477 37.833 78.2627 37.68 78.2627 37.506V37.191H79.1987V37.389C79.1987 37.911 79.0877 38.322 78.8657 38.622C78.6437 38.922 78.2657 39.072 77.7317 39.072ZM77.1557 35.895H78.2627V35.427C78.2627 35.211 78.2507 35.031 78.2267 34.887C78.2027 34.737 78.1517 34.626 78.0737 34.554C78.0017 34.476 77.8847 34.437 77.7227 34.437C77.5667 34.437 77.4467 34.473 77.3627 34.545C77.2847 34.617 77.2307 34.74 77.2007 34.914C77.1707 35.082 77.1557 35.316 77.1557 35.616V35.895ZM83.7518 39.072C83.3258 39.072 83.0018 38.988 82.7798 38.82C82.5638 38.646 82.4168 38.403 82.3388 38.091C82.2668 37.779 82.2308 37.416 82.2308 37.002V35.805C82.2308 35.367 82.2698 34.995 82.3478 34.689C82.4258 34.377 82.5728 34.14 82.7888 33.978C83.0108 33.81 83.3318 33.726 83.7518 33.726C84.1298 33.726 84.4208 33.789 84.6248 33.915C84.8348 34.035 84.9788 34.218 85.0568 34.464C85.1348 34.704 85.1738 35.004 85.1738 35.364V35.67H84.3008V35.355C84.3008 35.127 84.2858 34.947 84.2558 34.815C84.2258 34.683 84.1718 34.587 84.0938 34.527C84.0158 34.467 83.9048 34.437 83.7608 34.437C83.6048 34.437 83.4848 34.473 83.4008 34.545C83.3168 34.617 83.2598 34.74 83.2298 34.914C83.2058 35.082 83.1938 35.313 83.1938 35.607V37.245C83.1938 37.689 83.2358 37.986 83.3198 38.136C83.4038 38.286 83.5538 38.361 83.7698 38.361C83.9318 38.361 84.0488 38.325 84.1208 38.253C84.1988 38.175 84.2468 38.067 84.2648 37.929C84.2888 37.791 84.3008 37.635 84.3008 37.461V37.038H85.1738V37.398C85.1738 37.746 85.1318 38.046 85.0478 38.298C84.9698 38.55 84.8258 38.742 84.6158 38.874C84.4118 39.006 84.1238 39.072 83.7518 39.072ZM89.6659 39.072C89.3959 39.072 89.1769 39.021 89.0089 38.919C88.8469 38.817 88.7269 38.673 88.6489 38.487C88.5769 38.301 88.5409 38.082 88.5409 37.83V34.437H87.9919V33.798H88.5409V32.277H89.5039V33.798H90.3409V34.437H89.5039V37.767C89.5039 37.971 89.5369 38.118 89.6029 38.208C89.6689 38.292 89.7949 38.334 89.9809 38.334C90.0289 38.334 90.0829 38.331 90.1429 38.325C90.2089 38.319 90.2719 38.313 90.3319 38.307V39.018C90.2119 39.036 90.1009 39.048 89.9989 39.054C89.8969 39.066 89.7859 39.072 89.6659 39.072Z" fill="#DEE1E6"/>
<path d="M94.69 40V31.9H95.8V40H94.69ZM100.5 40V32.74H99.1305V31.9H102.96V32.74H101.63V40H100.5Z" fill="#DEE1E6"/>
</svg>
